Coordinates
version=1
nRows=20
nColumns=34
inDegrees=yes

Units are S.I. units (second, meters, Newtons, ...)
If the header above contains a line with 'inDegrees', this indicates whether rotational values are in degrees (yes) or radians (no).

endheader
time	pelvis_tilt	pelvis_list	pelvis_rotation	pelvis_tx	pelvis_ty	pelvis_tz	hip_flexion_r	hip_adduction_r	hip_rotation_r	knee_angle_r	ankle_angle_r	subtalar_angle_r	mtp_angle_r	hip_flexion_l	hip_adduction_l	hip_rotation_l	knee_angle_l	ankle_angle_l	subtalar_angle_l	mtp_angle_l	lumbar_extension	lumbar_bending	lumbar_rotation	arm_flex_r	arm_add_r	arm_rot_r	elbow_flex_r	pro_sup_r	arm_flex_l	arm_add_l	arm_rot_l	elbow_flex_l	pro_sup_l
      2.50000000	     -7.72531819	     -0.86654869	     -1.08367636	      0.34839978	      0.98916223	     -0.08206135	     22.08787240	     -3.84901984	     -4.55737101	     13.99863214	    -35.93841967	     -4.02142894	      0.00000000	     26.54076728	    -10.27823252	     -5.54267868	     15.14527659	    -30.28283766	     10.68046463	      0.00000000	    -30.88343496	     -0.50546563	     -4.34390626	    -31.96848967	    -15.57062338	     -6.55763713	     91.54165562	     92.12707659	    -33.35023173	    -12.75093670	     -8.21536415	     83.78092566	     82.85220812
      2.51666670	     -7.12240583	     -1.99211087	     -0.36883169	      0.35504123	      0.94709864	     -0.08239826	     23.83252221	     -3.20877596	     -3.45402697	     20.47593350	    -29.30387492	     -8.30305275	      0.00000000	     28.76061848	    -11.51716425	     -3.50553688	     20.50420445	    -24.53405342	      9.26298583	      0.00000000	    -32.44063119	      0.31690148	     -4.34082933	    -31.04998460	    -15.21153459	     -6.37932900	     92.62377682	     91.98214118	    -30.44005276	    -13.18427644	     -8.41284117	     83.67272510	     81.94994795
      2.53333330	     -6.59649811	     -2.30635849	      0.53633948	      0.35654925	      0.90814012	     -0.08800640	     28.05222545	     -3.58099251	     -2.19952905	     31.73034480	    -17.73565768	    -14.74715617	      0.00000000	     32.84475149	    -11.54267907	     -0.92359330	     30.04096185	    -14.72790108	      6.28998176	      0.00000000	    -34.83177908	      0.32819406	     -4.48016270	    -28.35909891	    -14.63472475	     -6.24356675	     92.26443622	     91.76095565	    -26.03146679	    -13.84092426	     -8.29474683	     82.40644693	     81.02441127
      2.55000000	     -6.42294698	     -1.84806167	      1.05288158	      0.36423273	      0.87432792	     -0.09017101	     32.81948170	     -4.38801667	      0.07023183	     43.69523113	     -2.52697600	    -17.16895334	      0.00000000	     37.66246437	    -10.70823940	      0.71351959	     40.92569513	     -2.82735634	      3.25746659	      0.00000000	    -37.09229987	     -0.22985796	     -4.99098734	    -24.28447145	    -14.39546590	     -5.79151097	     90.98845896	     91.40206481	    -20.41462190	    -14.53764503	     -7.88213115	     80.42567320	     79.91452188
      2.56666670	     -5.97357388	     -1.57447434	      1.15578322	      0.36190475	      0.83582656	     -0.09356155	     37.82477756	     -5.06794657	      1.50058617	     55.25473143	      9.57931496	    -16.80581166	      0.00000000	     42.55617872	     -9.92339583	      2.33279834	     51.93788346	      8.14052440	      1.20411003	      0.00000000	    -39.47870557	     -0.49588514	     -5.45463388	    -18.54762734	    -14.56685446	     -4.85010187	     89.14990480	     90.71143569	    -13.80451801	    -14.66987803	     -7.00616369	     76.65199822	     78.12614757
      2.58333330	     -5.91146223	     -1.60242391	      0.94777741	      0.35647761	      0.80294638	     -0.09681998	     43.15870184	     -5.51868157	      2.62026786	     65.47947825	     17.77597007	    -15.06435495	      0.00000000	     47.90979072	     -9.22365667	      4.19733282	     62.42467011	     16.41592449	      0.41300961	      0.00000000	    -42.13473598	     -0.34258513	     -5.92350347	    -12.00573965	    -14.83747565	     -4.10865149	     87.95689402	     90.11768331	     -5.75464605	    -14.82924438	     -6.36604136	     73.41799089	     76.76615448
      2.60000000	     -5.92010170	     -1.63528274	      0.89970523	      0.35820883	      0.78215003	     -0.09634710	     47.66442919	     -6.02121648	      3.03221616	     73.23858502	     22.64830186	    -12.71502747	      0.00000000	     52.30950767	     -8.54482849	      5.96744784	     70.33276809	     20.91893748	      0.06122902	      0.00000000	    -45.17703006	     -0.35420070	     -6.41143943	     -4.83114477	    -14.33131116	     -2.68986873	     84.80624501	     89.63806970	      3.74262945	    -15.33136915	     -4.88518099	     68.37837564	     75.38774662
      2.61666670	     -6.50379660	     -1.63129626	      0.60544648	      0.34481865	      0.75802568	     -0.09777761	     52.91425818	     -6.53417074	      3.28901447	     79.61088958	     23.93485933	    -11.11013171	      0.00000000	     57.04484220	     -7.97193236	      7.24984902	     76.46575823	     24.14098980	      0.52977324	      0.00000000	    -48.81033817	     -0.24218647	     -6.71027120	      4.22185504	    -13.86516084	     -0.82785258	     82.21983612	     89.36574773	     14.20008916	    -15.91159257	     -2.91398026	     63.50204283	     73.97923309
      2.63333330	     -7.28184044	     -1.70864069	      0.47156723	      0.35972690	      0.73467638	     -0.09781806	     56.51567692	     -6.84323114	      3.41328068	     84.53527676	     26.75212856	     -9.11511780	      0.00000000	     60.30483327	     -7.79812249	      8.42807365	     80.92929599	     26.58503465	      0.70444554	      0.00000000	    -51.65506846	      0.04193767	     -6.61977865	     12.60030898	    -12.92787067	      1.49504151	     77.67652121	     89.32588750	     23.74135183	    -16.01475885	     -0.42000068	     57.29495077	     72.60475206
      2.65000000	     -9.15119054	     -1.89497820	      0.31322129	      0.36313956	      0.70414183	     -0.09963038	     61.01512100	     -7.22377225	      3.41294567	     89.36176476	     28.72674713	     -7.86564398	      0.00000000	     65.37962964	     -7.79258811	      9.30183082	     86.22982318	     28.84519327	      1.17276070	      0.00000000	    -53.46079619	      0.45360722	     -6.11981348	     19.07997297	    -12.51564859	      3.66223020	     75.47073060	     89.43230530	     31.35110874	    -15.81614225	      1.89670544	     53.96560913	     71.30221658
      2.66666670	    -11.74952290	     -1.63218023	      0.15176502	      0.35481303	      0.68888226	     -0.10203701	     65.78997843	     -7.78906323	      3.94697014	     92.48056377	     29.05280079	     -7.67325463	      0.00000000	     70.17461388	     -7.19940175	      9.51179137	     89.23365699	     29.11441089	      0.40625973	      0.00000000	    -55.27382669	      0.30210301	     -5.83216595	     26.28555616	    -12.19211109	      5.51044393	     73.02571820	     89.48718171	     39.78523045	    -15.62517332	      5.30244753	     50.76922538	     69.70595686
      2.68333330	    -14.56217458	     -1.34242021	      0.11413033	      0.35614166	      0.67554993	     -0.09833226	     69.88527311	     -8.09965822	      4.20552107	     94.26809418	     29.60848579	     -7.68459295	      0.00000000	     74.47821791	     -6.99556183	      9.63210343	     90.96084046	     28.89408734	     -0.13991726	      0.00000000	    -56.40940417	     -0.06339142	     -5.65472033	     33.09288779	    -11.48691606	      7.28279998	     70.49108565	     89.59437283	     47.73407125	    -15.56356354	      9.20640319	     47.00949642	     68.60159617
      2.70000000	    -17.41999145	     -0.84366596	      0.43521873	      0.35517472	      0.66419266	     -0.09868551	     73.80308074	     -8.46214484	      4.93285699	     95.53895740	     29.83366980	     -8.21649750	      0.00000000	     78.56129650	     -6.43791541	      9.38464225	     92.46418685	     29.08203042	     -0.58782138	      0.00000000	    -57.71696473	     -0.38270826	     -5.59616480	     39.83326137	    -11.38326294	      8.87743358	     68.71140579	     89.72482574	     56.19801128	    -15.36027444	     14.12869718	     43.19031081	     67.07484908
      2.71666670	    -20.59526207	     -0.59966934	      0.47029014	      0.35891204	      0.63847613	     -0.10435519	     78.70998755	     -8.78025039	      6.14265545	     98.18367258	     31.30590066	     -7.61472322	      0.00000000	     83.19577275	     -6.05692670	      9.48812191	     94.84670197	     31.65940226	      0.17076529	      0.00000000	    -56.91077245	     -0.17100493	     -5.46491626	     45.06063920	    -11.68513379	     10.88185252	     67.81726274	     89.88591256	     62.17896613	    -14.43041295	     16.90084923	     40.91407237	     65.59662357
      2.73333330	    -23.44150094	     -0.26891364	      0.66060491	      0.35046819	      0.62195683	     -0.10877135	     83.93744506	     -9.51845732	      7.38884000	    100.71223874	     31.61895503	     -6.85466539	      0.00000000	     88.36139792	     -4.96135602	      9.38343041	     97.82054980	     32.43438707	     -0.20888881	      0.00000000	    -56.16744045	      0.26549297	     -5.28752108	     50.10845376	    -12.67978680	     12.59657563	     68.58482419	     89.79588757	     68.55890158	    -13.45730116	     20.00964945	     39.69914474	     63.22739862
      2.75000000	    -26.35466268	     -0.26760575	      0.80849379	      0.36189599	      0.61004838	     -0.10875577	     88.40952712	     -9.91112674	      8.02605448	    102.89604412	     31.62329124	     -6.84868638	      0.00000000	     92.38208618	     -4.08874825	      9.74548324	     99.58412137	     32.34002281	     -1.41298167	      0.00000000	    -54.62078212	      1.00117460	     -5.21846185	     53.52120192	    -12.80535715	     13.34169369	     68.88761948	     89.82316683	     72.95254348	    -12.56339138	     20.14391615	     39.71507603	     62.55680939
      2.76666670	    -29.11652752	     -0.26019092	      0.93445250	      0.36017139	      0.60155379	     -0.11248556	     91.91076224	    -10.49124861	      8.21942507	    103.96102293	     30.87890882	     -7.17331111	      0.00000000	     95.97072110	     -2.80486001	     10.10859929	    100.91949544	     32.60676247	     -1.93094797	      0.00000000	    -53.18880125	      1.84908731	     -4.84936660	     57.42089495	    -13.91465467	     15.65447767	     69.52999366	     89.83089488	     77.38130901	    -11.46427782	     21.28240283	     39.38162384	     60.20308427
      2.78333330	    -31.64077469	     -0.15756402	      0.92813414	      0.35218567	      0.59123324	     -0.11786888	     95.66699143	    -11.02786833	      8.77167801	    104.92851973	     30.00453376	     -7.17797390	      0.00000000	     99.47514253	     -1.53393575	     10.27653305	    101.92192873	     32.67569743	     -2.57850885	      0.00000000	    -51.44960896	      2.58897816	     -4.72395515	     60.75748891	    -14.51130287	     16.84270452	     70.77396056	     89.84049648	     80.62746274	    -10.87708962	     21.27235791	     40.54834027	     59.33677650
      2.80000000	    -33.47017905	     -0.37014687	      0.91660365	      0.34054565	      0.58236180	     -0.11871147	     99.00038833	    -11.38595143	      9.02105255	    105.84406455	     29.00843754	     -7.39418334	      0.00000000	    102.54510925	     -0.26567976	     10.94005929	    102.81191905	     31.97621129	     -3.36024995	      0.00000000	    -50.00143461	      3.50078730	     -4.50491914	     64.49177762	    -15.33915514	     18.79584439	     72.23481606	     89.79835659	     84.58246496	    -10.45800903	     21.31731478	     41.20724384	     58.32131758
      2.81666670	    -34.78842740	     -0.56664659	      0.88801415	      0.32677107	      0.57772056	     -0.11867946	    101.90753343	    -11.42118744	      9.10729315	    106.19860220	     28.17788915	     -7.72579286	      0.00000000	    105.08451940	      0.76709806	     11.68494795	    103.35396310	     31.11612039	     -4.07551584	      0.00000000	    -48.99597601	      4.12545328	     -4.62500758	     68.64368863	    -15.93227327	     20.96454696	     74.10372571	     89.62600034	     89.37535090	    -10.61496380	     21.94672533	     41.14548754	     57.20891045
